<svg width="309" height="255" fill="none" xmlns="http://www.w3.org/2000/svg">
  <path d="M224.055 57.456c0-14.699-11.681-26.662-26.266-27.132v-7.016h35.645c14.998 0 27.156 12.157 27.156 27.154v51.553a2.88 2.88 0 01-2.881 2.879c-18.588 0-33.656-15.068-33.656-33.654V57.456h.002z" fill="#824A25"/>
  <path d="M208.769 41.13h2.584a7.425 7.425 0 007.425-7.425V23.272c0-4.1-3.325-7.425-7.425-7.425h-2.584a7.425 7.425 0 00-7.425 7.425v10.434c0 4.1 3.323 7.425 7.425 7.425z" fill="#DD5298"/>
  <path d="M233.434 23.308h-16.603c14.997 0 27.153 12.157 27.153 27.154v51.506a33.556 33.556 0 0013.725 2.926 2.881 2.881 0 002.881-2.881V50.462c0-14.997-12.158-27.154-27.156-27.154z" fill="#703E23"/>
  <path d="M211.165 15.846h-2.21c-.649 0-1.275.092-1.877.245 3.295.837 5.734 3.812 5.734 7.368v10.06c0 3.554-2.439 6.532-5.734 7.369a7.602 7.602 0 001.877.242h2.21a7.612 7.612 0 007.613-7.61V23.459a7.612 7.612 0 00-7.613-7.613z" fill="#C93F84"/>
  <path d="M84.974 57.456c0-14.699 11.679-26.662 26.265-27.132v-7.016H75.593c-14.997 0-27.156 12.157-27.156 27.154v51.553a2.88 2.88 0 002.88 2.879c18.59 0 33.657-15.068 33.657-33.654V57.456z" fill="#824A25"/>
  <path d="M94.635 30.324c-14.586.47-26.267 12.433-26.267 27.132V71.24c0 13.697-8.186 25.474-19.931 30.728v.047a2.88 2.88 0 002.88 2.879c18.59 0 33.657-15.068 33.657-33.654V57.456c0-14.699 11.679-26.662 26.265-27.132H94.635z" fill="#703E23"/>
  <path d="M100.258 41.13h-2.584a7.426 7.426 0 01-7.425-7.425V23.272c0-4.1 3.326-7.425 7.425-7.425h2.584a7.425 7.425 0 017.425 7.425v10.434c0 4.1-3.323 7.425-7.425 7.425z" fill="#DD5298"/>
  <path d="M100.072 15.846h-2.21c-.65 0-1.277.092-1.877.245 3.293.837 5.734 3.812 5.734 7.368v10.06c0 3.554-2.441 6.532-5.734 7.369.6.153 1.228.242 1.877.242h2.21a7.611 7.611 0 007.611-7.61V23.459a7.612 7.612 0 00-7.611-7.613z" fill="#C93F84"/>
  <path d="M215.156 61.694h-1.15v-9.268C214.006 23.47 190.533 0 161.581 0h-13.975c-28.955 0-52.425 23.47-52.425 52.426v9.268h-2.582c-6.195 0-11.216 5.023-11.216 11.218v5.171c0 8.608 6.978 15.586 15.585 15.586.682 0 1.35-.07 2-.188 7.753 19.263 26.6 32.865 48.638 32.865h13.975c22.017 0 40.852-13.581 48.62-32.816.572.082 1.153.139 1.75.139 8.497 0 15.385-6.889 15.385-15.386v-4.407c.003-6.728-5.451-12.182-12.18-12.182z" fill="#BC663B"/>
  <path d="M215.156 61.694h-1.15v-9.268C214.006 23.47 190.533 0 161.581 0h-13.975c-.242 0-.477.014-.717.019 28.621.386 51.706 23.694 51.706 52.407V73.92c0 28.713-23.085 52.021-51.706 52.407.24.004.475.018.717.018h13.975c22.017 0 40.852-13.581 48.62-32.816.572.082 1.153.139 1.75.139 8.497 0 15.385-6.889 15.385-15.386v-4.407c.002-6.728-5.451-12.182-12.18-12.182z" fill="#AD5731"/>
  <path d="M137.376 38.28h34.435c17.304 0 32.647 8.389 42.195 21.319v-7.173C214.006 23.47 190.536 0 161.581 0h-13.975c-28.955 0-52.425 23.47-52.425 52.426v7.172c9.548-12.93 24.889-21.318 42.195-21.318z" fill="#824A25"/>
  <path d="M161.581 0h-13.975c-1.928 0-3.831.11-5.705.315 22.316 2.415 40.418 18.83 45.368 40.284 10.828 3.337 20.157 10.091 26.737 19v-7.173C214.006 23.47 190.533 0 161.581 0zM139.185 68.794a6.887 6.887 0 01-6.889 6.886 6.887 6.887 0 116.889-6.886zM183.774 68.794a6.886 6.886 0 01-13.772 0 6.887 6.887 0 1113.772 0z" fill="#703E23"/>
  <path d="M154.594 108.657c11.951 0 21.791-9.038 23.061-20.651a2.3 2.3 0 00-2.281-2.55h-41.561a2.3 2.3 0 00-2.281 2.55c1.27 11.613 11.11 20.651 23.062 20.651z" fill="#fff"/>
  <path d="M296.069 190.348h-1.15v-9.269c0-28.955-23.471-52.425-52.426-52.425h-13.974c-28.953 0-52.426 23.47-52.426 52.425v9.269h-2.579c-6.197 0-11.218 5.023-11.218 11.217v5.172c0 8.607 6.977 15.585 15.585 15.585.684 0 1.35-.07 1.999-.188C187.634 241.395 206.483 255 228.519 255h13.974c22.02 0 40.855-13.581 48.621-32.817.574.083 1.154.139 1.749.139 8.5 0 15.388-6.888 15.388-15.385v-4.407c0-6.729-5.454-12.182-12.182-12.182z" fill="#FFC5B2"/>
  <path d="M296.069 190.348h-1.15v-9.269c0-28.955-23.471-52.425-52.426-52.425h-13.974c-.24 0-.477.014-.717.018 28.621.386 51.708 23.694 51.708 52.407v21.495c0 28.713-23.087 52.022-51.708 52.407.24.005.477.019.717.019h13.974c22.02 0 40.855-13.581 48.621-32.817.574.083 1.154.139 1.749.139 8.5 0 15.388-6.888 15.388-15.385v-4.407c0-6.729-5.454-12.182-12.182-12.182z" fill="#FFAE92"/>
  <path d="M218.289 166.933h34.435c17.306 0 32.647 8.389 42.195 21.319v-7.173c0-28.955-23.471-52.425-52.426-52.425h-13.974c-28.953 0-52.426 23.47-52.426 52.425v7.173c9.549-12.93 24.892-21.319 42.196-21.319z" fill="#FFC50D"/>
  <path d="M220.097 197.445a6.887 6.887 0 01-6.886 6.889 6.888 6.888 0 010-13.775 6.886 6.886 0 016.886 6.886zM264.689 197.445a6.887 6.887 0 01-6.886 6.889 6.888 6.888 0 010-13.775 6.886 6.886 0 016.886 6.886z" fill="#257EDF"/>
  <path d="M235.506 237.31c11.952 0 21.792-9.038 23.062-20.651a2.299 2.299 0 00-2.282-2.549h-41.56a2.3 2.3 0 00-2.281 2.549c1.27 11.613 11.11 20.651 23.061 20.651z" fill="#fff"/>
  <path d="M133.773 190.348h-1.15v-9.269c0-28.955-23.47-52.425-52.425-52.425H66.224c-28.956 0-52.426 23.47-52.426 52.425v9.269h-2.58C5.02 190.348 0 195.371 0 201.565v5.172c0 8.607 6.978 15.585 15.585 15.585.684 0 1.35-.07 2-.188C25.337 241.395 44.186 255 66.223 255h13.974c22.017 0 40.855-13.581 48.62-32.817.572.083 1.155.139 1.75.139 8.497 0 15.388-6.888 15.388-15.385v-4.407c0-6.729-5.454-12.182-12.183-12.182z" fill="#BC663B"/>
  <path d="M133.773 190.348h-1.15v-9.269c0-28.955-23.47-52.425-52.425-52.425H66.224c-.24 0-.478.014-.718.018 28.621.386 51.709 23.694 51.709 52.407v21.495c0 28.713-23.088 52.022-51.709 52.407.24.005.478.019.718.019h13.974c22.017 0 40.855-13.581 48.62-32.817.572.083 1.155.139 1.75.139 8.497 0 15.387-6.888 15.387-15.385v-4.407c0-6.729-5.453-12.182-12.182-12.182z" fill="#AD5731"/>
  <path d="M55.993 166.933h34.435c17.307 0 32.647 8.389 42.195 21.319v-7.173c0-28.955-23.47-52.425-52.425-52.425H66.224c-28.953 0-52.426 23.47-52.426 52.425v7.173c9.548-12.93 24.891-21.319 42.195-21.319z" fill="#824A25"/>
  <path d="M242.493 128.654h-13.974c-1.759 0-3.497.089-5.214.258 22.659 2.239 41.064 18.904 45.935 40.684 10.376 3.443 19.315 10.039 25.679 18.656v-7.173c0-28.955-23.471-52.425-52.426-52.425z" fill="#FFA300"/>
  <path d="M80.198 128.654H66.224c-1.76 0-3.5.089-5.214.258 22.659 2.239 41.064 18.904 45.934 40.684 10.376 3.443 19.315 10.039 25.679 18.656v-7.173c0-28.955-23.47-52.425-52.425-52.425zM57.802 197.445a6.887 6.887 0 01-6.886 6.889 6.887 6.887 0 010-13.775 6.886 6.886 0 016.886 6.886zM102.394 197.445a6.888 6.888 0 11-13.775.003 6.888 6.888 0 0113.775-.003z" fill="#703E23"/>
  <path d="M73.21 237.31c11.952 0 21.792-9.038 23.062-20.651a2.298 2.298 0 00-2.281-2.549H52.43a2.298 2.298 0 00-2.282 2.549c1.27 11.613 11.11 20.651 23.062 20.651z" fill="#fff"/>
</svg>