<svg width="308" height="308" fill="none" xmlns="http://www.w3.org/2000/svg">
  <path d="M286 74.662c12.623 23.923 22 50.317 22 79.338 0 85.052-68.948 154-154 154S0 239.052 0 154 68.948 0 154 0c29.547 0 58.35 9.042 81.794 23.47 0 0 36.353 24.935 50.206 51.192z" fill="#FF405C"/>
  <path d="M308 154c0-29.021-9.377-55.415-21.999-79.338-13.854-26.257-50.207-51.193-50.207-51.193C212.35 9.042 183.547 0 154 0v308c85.052 0 154-68.948 154-154z" fill="#C1126B"/>
  <path d="M243.424 109.618c6.571 14.012 10.382 27.837 10.382 44.382 0 55.121-44.685 99.806-99.807 99.806-55.121 0-99.805-44.685-99.805-99.806 0-55.121 44.685-99.806 99.806-99.806 17.411 0 32.405 3.71 46.654 11.548 0 0 30.319 17.32 42.77 43.876z" fill="#FFF4F4"/>
  <path d="M253.806 154c0-16.546-3.811-30.37-10.381-44.382-12.452-26.555-42.77-43.876-42.77-43.876-14.25-7.837-29.244-11.549-46.655-11.549v199.613c55.121 0 99.806-44.685 99.806-99.806z" fill="#EEE1DC"/>
  <path d="M154 200.981c25.947 0 46.981-21.034 46.981-46.981 0-25.947-21.034-46.981-46.981-46.981-25.947 0-46.981 21.034-46.981 46.981 0 25.947 21.034 46.981 46.981 46.981z" fill="#FF405C"/>
  <path d="M200.981 154c0-25.947-21.035-46.981-46.981-46.981v93.962c25.946 0 46.981-21.035 46.981-46.981z" fill="#C1126B"/>
  <path d="M152.101 166.502a9.46 9.46 0 01-6.735-2.803 9.495 9.495 0 01.044-13.426l117.16-116.39c3.72-3.695 9.731-3.674 13.425.044 3.695 3.72 3.675 9.73-.043 13.426l-117.161 116.39a9.466 9.466 0 01-6.69 2.759z" fill="#00337A"/>
  <path d="M275.739 29.227l-8.65-24.975c-1.43-4.131-6.69-5.34-9.781-2.25l-49.092 49.093a5.918 5.918 0 00-1.599 5.443l7.208 33.177a5.918 5.918 0 004.251 4.46l34.087 9.148a5.922 5.922 0 005.722-1.531l48.379-48.38c2.953-2.952 2.004-7.95-1.825-9.616L278.972 32.72a5.916 5.916 0 01-3.233-3.492z" fill="#00AEEE"/>
  <path d="M275.995 33.927c-.072-.073-.151-.135-.225-.205L145.59 163.903a9.457 9.457 0 006.51 2.599c2.419 0 4.839-.92 6.691-2.759l117.16-116.39a9.493 9.493 0 00.044-13.426z" fill="#002659"/>
  <path d="M304.421 43.814l-25.467-11.077a5.899 5.899 0 01-1.362-.835l-61.403 61.402c.56.395 1.185.706 1.869.89l34.088 9.147a5.92 5.92 0 005.721-1.531l48.38-48.38c2.952-2.952 2.003-7.95-1.826-9.616z" fill="#0089FF"/>
</svg>